<svg width="24" height="24" viewBox="0 0 24 24" fill="none" xmlns="http://www.w3.org/2000/svg">
<path d="M21 16.5C21 16.88 20.79 17.21 20.47 17.38L12.57 21.82C12.41 21.94 12.21 22 12 22C11.79 22 11.59 21.94 11.43 21.82L3.53001 17.38C3.36961 17.2958 3.23538 17.1693 3.14193 17.0141C3.04848 16.859 2.99939 16.6811 3.00001 16.5V7.5C3.00001 7.12 3.21001 6.79 3.53001 6.62L11.43 2.18C11.59 2.06 11.79 2 12 2C12.21 2 12.41 2.06 12.57 2.18L20.47 6.62C20.79 6.79 21 7.12 21 7.5V16.5ZM12 4.15L5.00001 8.09V15.91L12 19.85L19 15.91V8.09L12 4.15Z" fill="#F51B2E"/>
</svg>
