<svg width="307" height="49" viewBox="0 0 307 49" fill="none" xmlns="http://www.w3.org/2000/svg">
<path d="M31 36.375C31 37.04 30.6383 37.6175 30.0872 37.915L16.4817 45.685C16.2061 45.895 15.8617 46 15.5 46C15.1383 46 14.7939 45.895 14.5183 45.685L0.912787 37.915C0.636556 37.7677 0.405384 37.5463 0.244441 37.2747C0.0834977 37.0032 -0.00104758 36.692 9.79794e-06 36.375V20.625C9.79794e-06 19.96 0.361676 19.3825 0.912787 19.085L14.5183 11.315C14.7939 11.105 15.1383 11 15.5 11C15.8617 11 16.2061 11.105 16.4817 11.315L30.0872 19.085C30.6383 19.3825 31 19.96 31 20.625V36.375ZM15.5 14.7625L3.44445 21.6575V35.3425L15.5 42.2375L27.5556 35.3425V21.6575L15.5 14.7625Z" fill="#F51B2E"/>
<path d="M40.592 40V17.696H44.688V40H40.592ZM64.8378 40.448L54.1498 28.256L53.1578 26.976L53.3178 30.08V40H49.3818V17.312H49.7338L60.2618 29.6L61.3818 31.056L61.2218 28V17.696H65.1578V40.448H64.8378ZM69.842 40V17.696H73.938V40H69.842ZM82.1783 40V21.312H77.0263V17.696H91.4583V21.312H86.3063V40H82.1783ZM94.5295 40V17.696H98.6255V40H94.5295ZM100.55 40L109.99 17.312H110.31L119.782 40H115.43L114.182 36.768H106.214L105.03 40H100.55ZM109.606 27.584L107.366 33.664H112.998L110.662 27.584L110.118 25.792L109.606 27.584ZM124.147 40V21.312H118.995V17.696H133.427V21.312H128.275V40H124.147ZM136.498 40V17.696H140.594V40H136.498ZM151.732 40.112L142.867 17.696H147.316L150.836 27.52L152.068 31.248L153.3 27.52L156.692 17.696H161.076L152.244 40.112H151.732ZM163.342 40V17.696H174.99V21.184H167.342V26.4H173.422V29.792H167.342V36.384H175.63V40H163.342ZM189.147 40V21.312H183.995V17.696H198.427V21.312H193.275V40H189.147ZM216.103 40H211.143L205.415 31.936V40H201.351V17.696H207.559C209.073 17.696 210.428 17.92 211.623 18.368C212.817 18.8053 213.761 19.5413 214.455 20.576C215.148 21.6107 215.495 23.0187 215.495 24.8C215.495 25.7707 215.329 26.7733 214.999 27.808C214.679 28.832 214.14 29.7493 213.383 30.56C212.636 31.3707 211.623 31.936 210.343 32.256L216.103 40ZM205.415 29.92H207.111C208.049 29.92 208.833 29.7013 209.463 29.264C210.103 28.816 210.583 28.2347 210.903 27.52C211.233 26.7947 211.399 26.016 211.399 25.184C211.399 23.744 211.068 22.672 210.407 21.968C209.745 21.2533 208.615 20.896 207.015 20.896H205.415V29.92ZM216.8 40L226.24 17.312H226.56L236.032 40H231.68L230.432 36.768H222.464L221.28 40H216.8ZM225.856 27.584L223.616 33.664H229.248L226.912 27.584L226.368 25.792L225.856 27.584ZM245.459 40.384C244.296 40.384 243.176 40.1493 242.099 39.68C241.021 39.2 240.051 38.48 239.187 37.52C238.333 36.5493 237.656 35.3173 237.155 33.824C236.653 32.3307 236.403 30.5707 236.403 28.544C236.403 26.112 236.824 24.064 237.667 22.4C238.52 20.7253 239.656 19.4613 241.075 18.608C242.504 17.744 244.083 17.312 245.811 17.312C246.984 17.312 247.939 17.424 248.675 17.648C249.421 17.872 250.013 18.1387 250.451 18.448C250.899 18.7573 251.261 19.04 251.539 19.296L249.747 22.656C249.288 22.1547 248.813 21.7547 248.323 21.456C247.832 21.1467 247.048 20.992 245.971 20.992C244.883 20.992 243.955 21.3067 243.187 21.936C242.429 22.5653 241.848 23.4347 241.443 24.544C241.048 25.6427 240.851 26.9013 240.851 28.32C240.851 31.104 241.315 33.2053 242.243 34.624C243.181 36.032 244.307 36.736 245.619 36.736C246.632 36.736 247.496 36.592 248.211 36.304C248.925 36.016 249.459 35.6907 249.811 35.328L251.571 38.496C251.272 38.7413 250.872 39.0133 250.371 39.312C249.88 39.6 249.235 39.8507 248.435 40.064C247.645 40.2773 246.653 40.384 245.459 40.384ZM255.101 40V17.696H259.165V28.8L266.269 17.696H270.973L263.373 28.768L271.485 40H266.365L259.165 29.296V40H255.101ZM274.467 40V17.696H286.115V21.184H278.467V26.4H284.547V29.792H278.467V36.384H286.755V40H274.467ZM304.946 40H299.986L294.258 31.936V40H290.194V17.696H296.402C297.917 17.696 299.272 17.92 300.466 18.368C301.661 18.8053 302.605 19.5413 303.298 20.576C303.992 21.6107 304.338 23.0187 304.338 24.8C304.338 25.7707 304.173 26.7733 303.842 27.808C303.522 28.832 302.984 29.7493 302.226 30.56C301.48 31.3707 300.466 31.936 299.186 32.256L304.946 40ZM294.258 29.92H295.954C296.893 29.92 297.677 29.7013 298.306 29.264C298.946 28.816 299.426 28.2347 299.746 27.52C300.077 26.7947 300.242 26.016 300.242 25.184C300.242 23.744 299.912 22.672 299.25 21.968C298.589 21.2533 297.458 20.896 295.858 20.896H294.258V29.92Z" fill="white"/>
<path d="M53.738 14.049L49.86 4.242H51.806L53.346 8.54L53.885 10.171L54.424 8.54L55.908 4.242H57.826L53.962 14.049H53.738ZM58.8176 14V4.242H60.6096V14H58.8176ZM62.6631 14V4.242H64.4411V9.1L67.5491 4.242H69.6071L66.2821 9.086L69.8311 14H67.5911L64.4411 9.317V14H62.6631ZM70.6101 7.448C70.6847 7.09333 70.7547 6.671 70.8201 6.181C70.8854 5.691 70.9391 5.18233 70.9811 4.655C71.0231 4.123 71.0441 3.61667 71.0441 3.136H72.7661C72.7661 3.64933 72.7241 4.172 72.6401 4.704C72.5561 5.23133 72.4534 5.733 72.3321 6.209C72.2154 6.685 72.1081 7.098 72.0101 7.448H70.6101ZM76.8086 14.154C76.1226 14.154 75.5229 14.0397 75.0096 13.811C74.4962 13.5823 74.1206 13.342 73.8826 13.09L74.5966 11.62C74.6946 11.746 74.8486 11.8883 75.0586 12.047C75.2732 12.2057 75.5206 12.3457 75.8006 12.467C76.0852 12.5837 76.3792 12.642 76.6826 12.642C77.0326 12.642 77.3359 12.544 77.5926 12.348C77.8539 12.152 77.9846 11.8627 77.9846 11.48C77.9846 11.102 77.8492 10.8033 77.5786 10.584C77.3126 10.36 76.9486 10.108 76.4866 9.828C76.1086 9.59933 75.7376 9.35667 75.3736 9.1C75.0096 8.83867 74.7062 8.52133 74.4636 8.148C74.2256 7.77 74.1066 7.294 74.1066 6.72C74.1066 5.95 74.3516 5.31767 74.8416 4.823C75.3362 4.32367 76.0526 4.074 76.9906 4.074C77.4666 4.074 77.8702 4.13 78.2016 4.242C78.5376 4.354 78.8082 4.48233 79.0136 4.627C79.2236 4.77167 79.3799 4.89067 79.4826 4.984L78.6986 6.412C78.6332 6.31867 78.5236 6.20433 78.3696 6.069C78.2156 5.93367 78.0266 5.81467 77.8026 5.712C77.5786 5.60933 77.3312 5.558 77.0606 5.558C76.6826 5.558 76.3979 5.66767 76.2066 5.887C76.0199 6.10167 75.9266 6.356 75.9266 6.65C75.9266 7.028 76.0642 7.336 76.3396 7.574C76.6196 7.812 76.9579 8.05 77.3546 8.288C77.7932 8.54933 78.1992 8.813 78.5726 9.079C78.9459 9.34033 79.2469 9.65533 79.4756 10.024C79.7042 10.388 79.8186 10.8547 79.8186 11.424C79.8186 12.278 79.5502 12.9477 79.0136 13.433C78.4769 13.9137 77.7419 14.154 76.8086 14.154Z" fill="white"/>
</svg>
